<?xml version="1.0" encoding="UTF-8" standalone="no"?>
<svg width="165px" height="37px" viewBox="0 0 165 37" version="1.1" xmlns="http://www.w3.org/2000/svg" xmlns:xlink="http://www.w3.org/1999/xlink">
    <g id="Final-Design" stroke="none" stroke-width="1" fill="none" fill-rule="evenodd">
        <g id="StroyprombetonMain" transform="translate(-908.000000, -3413.000000)">
            <g id="logo-stk-prombeton" transform="translate(908.000000, 3413.000000)">
                <path d="M43.5228851,14.582747 L45.8381296,15.5003554 C45.4790831,17.1781126 44.8783863,18.4014512 44.0396699,19.1758007 C43.2005501,19.9509856 42.1706112,20.336072 40.9458191,20.336072 C39.4055501,20.336072 38.156956,19.7212702 37.2004401,18.4945903 C36.0999022,17.0774556 35.5496333,15.1633003 35.5496333,12.755466 C35.5496333,10.2127261 36.103533,8.22172062 37.2109291,6.78370263 C38.1771271,5.5365572 39.4725183,4.91089617 41.0966993,4.91089617 C42.4219438,4.91089617 43.5293399,5.37993311 44.4221149,6.318007 C45.0562958,6.9850168 45.5226528,7.97529872 45.8179584,9.2884351 L43.4623716,9.99721132 C43.3114914,9.19111933 43.0093276,8.57255858 42.5599144,8.14194675 C42.1100978,7.71091725 41.5795966,7.49582017 40.9692176,7.49582017 C40.0966137,7.49582017 39.385379,7.88842455 38.8347066,8.67363333 C38.2812103,9.45884211 38.0060758,10.7548543 38.0060758,12.5612521 C38.0060758,14.4369822 38.2743521,15.7714195 38.8113081,16.5633109 C39.3482641,17.3552023 40.0429584,17.7515656 40.901846,17.7515656 C41.5295721,17.7515656 42.0729829,17.4980435 42.5328851,16.9939227 C42.9891565,16.4868783 43.321577,15.6845453 43.5228851,14.582747" id="Fill-1" fill="#D9222A"></path>
                <polyline id="Fill-2" fill="#D9222A" points="50.5460758 20.0863088 50.5460758 7.68335141 47.0427506 7.68335141 47.0427506 5.16107705 56.4251589 5.16107705 56.4251589 7.68335141 52.9222372 7.68335141 52.9222372 20.0863088 50.5460758 20.0863088"></polyline>
                <path d="M58.0162592,20.0863088 L58.0162592,5.16107705 L60.3920171,5.16107705 L60.3920171,11.5187622 C60.9253423,11.4494299 61.2944743,11.26524 61.4990098,10.962851 C61.7039487,10.6604621 61.9722249,9.93456168 62.3078729,8.78097304 C62.6402934,7.62780207 62.9892543,6.78704395 63.3483007,6.26245766 C63.7105746,5.73787137 64.0930196,5.41459924 64.4992665,5.30015924 C64.9055134,5.18530157 65.6030318,5.1055277 66.5930318,5.05666099 L66.5930318,7.28740571 L66.2610147,7.28740571 C65.5929462,7.28740571 65.143533,7.45071243 64.9055134,7.77732587 C64.6703178,8.1039393 64.4222127,8.72584136 64.1603912,9.64971467 C63.9017971,10.5702467 63.6803178,11.1817071 63.5028117,11.484096 C63.3212714,11.7864849 63.0291932,12.0884562 62.6302078,12.3837448 C63.1534474,12.6097012 63.5798655,12.974322 63.9086553,13.4784428 C64.237445,13.9821459 64.6368337,14.822904 65.1031907,16.0040585 L66.7140587,20.0863088 L63.9219682,20.0863088 L62.4894132,16.2295971 C62.1267359,15.2430742 61.8181174,14.5585225 61.5562958,14.1663358 C61.2981051,13.7770727 60.908802,13.5753409 60.3920171,13.561558 L60.3920171,20.0863088 L58.0162592,20.0863088" id="Fill-3" fill="#D9222A"></path>
                <polygon id="Fill-4" fill="#D9222A" points="67.3784963 16.1047155 71.8278484 16.1047155 71.8278484 13.2491451 67.3784963 13.2491451"></polygon>
                <polyline id="Fill-5" fill="#D9222A" points="75.9556724 20.0863088 73.5799144 20.0863088 73.5799144 5.16107705 83.0228362 5.16107705 83.0228362 20.0863088 80.6466748 20.0863088 80.6466748 7.68335141 75.9556724 7.68335141 75.9556724 20.0863088"></polyline>
                <path d="M85.3953667,9.26755188 L87.5093032,9.26755188 L87.5093032,10.8555113 C87.7977506,10.2853996 88.1769682,9.83724591 88.6501834,9.50729116 C89.1197677,9.18067772 89.6300978,9.017371 90.173912,9.017371 C91.1497922,9.017371 91.9893154,9.50019087 92.6940954,10.4662483 C93.3984719,11.431888 93.7510636,12.8005737 93.7510636,14.5760644 C93.7510636,16.4380116 93.3984719,17.8626643 92.6904645,18.8529463 C91.9824572,19.8428105 91.14011,20.336072 90.1670538,20.336072 C89.7140098,20.336072 89.2944499,20.221632 88.9019193,19.9956756 C88.5122127,19.766378 88.1031418,19.3566493 87.6702689,18.7589718 L87.6702689,24.1927836 L85.3953667,24.1927836 L85.3953667,9.26755188 L85.3953667,9.26755188 Z M87.6400122,14.4891902 C87.6400122,15.7121112 87.8316381,16.6155189 88.2140831,17.1956545 C88.5961247,17.7757902 89.0596577,18.0639785 89.6030685,18.0639785 C90.1166259,18.0639785 90.5527262,17.7966734 90.9053178,17.2616455 C91.2575061,16.7266176 91.4350122,15.8545347 91.4350122,14.6420554 C91.4350122,13.4884667 91.2542787,12.641026 90.8916015,12.0922152 C90.5293276,11.5434043 90.0863692,11.2685813 89.5631296,11.2685813 C89.0128606,11.2685813 88.5561858,11.5363041 88.1902812,12.0713319 C87.8243765,12.6063598 87.6400122,13.4120342 87.6400122,14.4891902 L87.6400122,14.4891902 Z" id="Fill-6" fill="#D9222A"></path>
                <path d="M94.9988509,14.5238564 C94.9988509,13.4642422 95.2037897,12.4986025 95.6100367,11.6265195 C96.0158802,10.7577779 96.545978,10.1049687 97.2003301,9.67059788 C97.8579095,9.23622707 98.5933496,9.017371 99.4155257,9.017371 C100.791198,9.017371 101.871968,9.57662342 102.656626,10.6955459 C103.445318,11.8140508 103.838252,13.1205045 103.838252,14.6144895 C103.838252,15.729653 103.633313,16.7370592 103.223839,17.6333667 C102.814364,18.5296741 102.277408,19.2071255 101.609743,19.6586206 C100.945709,20.1101156 100.217127,20.336072 99.4252078,20.336072 C98.1536186,20.336072 97.0966504,19.8323689 96.2575306,18.8283041 C95.4188142,17.8208979 94.9988509,16.3858036 94.9988509,14.5238564 L94.9988509,14.5238564 Z M97.3149022,14.6767215 C97.3149022,15.7714195 97.522665,16.597977 97.9353667,17.1605707 C98.3516993,17.7202408 98.8515403,18.0017465 99.4385208,18.0017465 C100.012592,18.0017465 100.502347,17.7202408 100.912225,17.1538881 C101.318068,16.5912944 101.522604,15.7572189 101.522604,14.6558383 C101.522604,13.5824412 101.314841,12.7625663 100.901736,12.1999725 C100.485807,11.6336198 99.9891932,11.3521141 99.4082641,11.3521141 C98.8345966,11.3521141 98.3444377,11.6336198 97.9321394,12.1999725 C97.5190342,12.7625663 97.3149022,13.5895415 97.3149022,14.6767215 L97.3149022,14.6767215 Z" id="Fill-7" fill="#D9222A"></path>
                <polyline id="Fill-8" fill="#D9222A" points="105.690367 20.0863088 105.690367 9.26755188 108.488912 9.26755188 110.612934 16.8030502 112.797873 9.26755188 115.576247 9.26755188 115.576247 20.0863088 113.623276 20.0863088 113.623276 12.9676394 111.539193 20.0863088 109.629792 20.0863088 107.643337 12.9676394 107.643337 20.0863088 105.690367 20.0863088"></polyline>
                <path d="M117.931834,20.0863088 L117.931834,5.16107705 L126.770831,5.16107705 L126.770831,7.68335141 L120.307995,7.68335141 L120.307995,11.1019332 L123.693521,11.1019332 C124.971968,11.1019332 125.975685,11.5154208 126.70346,12.3386371 C127.431638,13.1622709 127.797543,14.2527923 127.797543,15.6081128 C127.797543,16.7888496 127.488924,17.8313395 126.868056,18.731406 C126.247188,19.6343961 125.19022,20.0863088 123.696748,20.0863088 L117.931834,20.0863088 L117.931834,20.0863088 Z M120.307995,13.6242076 L120.307995,17.5640344 L122.824548,17.5640344 C123.4789,17.5640344 123.952115,17.518509 124.244193,17.4249522 C124.535868,17.3343191 124.790831,17.1225633 125.012311,16.7888496 C125.230562,16.4593125 125.3411,16.0700494 125.3411,15.6285783 C125.3411,14.2912174 124.535868,13.6242076 122.921773,13.6242076 L120.307995,13.6242076 L120.307995,13.6242076 Z" id="Fill-9" fill="#D9222A"></path>
                <path d="M134.700513,16.6464261 L136.955244,17.1259046 C136.653081,18.2130846 136.183496,19.0195943 135.545685,19.5475219 C134.908276,20.0725258 134.132897,20.336072 133.220355,20.336072 C131.951993,20.336072 130.975306,19.8987775 130.284242,19.0195943 C129.468924,18.0017465 129.062677,16.5737525 129.062677,14.7393711 C129.062677,12.9292143 129.472152,11.480337 130.2911,10.393157 C130.985391,9.47596634 131.884621,9.017371 132.985562,9.017371 C134.210355,9.017371 135.170098,9.48640795 135.864389,10.4244818 C136.666797,11.4978789 137.066186,13.0820794 137.066186,15.1737419 L137.055697,15.5003554 L131.377922,15.5003554 C131.391235,16.3548964 131.576002,17.0185649 131.93868,17.4876018 C132.297323,17.9566388 132.730599,18.1892778 133.237298,18.1892778 C133.968704,18.1892778 134.455232,17.6751331 134.700513,16.6464261 L134.700513,16.6464261 Z M134.820733,13.7490892 C134.800966,12.9049898 134.626284,12.2693048 134.297897,11.8453756 C133.968704,11.4181051 133.579401,11.2063493 133.122726,11.2063493 C132.643056,11.2063493 132.24044,11.4285467 131.91165,11.8696001 C131.576002,12.3177539 131.411809,12.9467562 131.418264,13.7490892 L134.820733,13.7490892 L134.820733,13.7490892 Z" id="Fill-10" fill="#D9222A"></path>
                <polyline id="Fill-11" fill="#D9222A" points="137.901675 11.5187622 137.901675 9.26755188 145.653447 9.26755188 145.653447 11.5187622 142.915012 11.5187622 142.915012 20.0863088 140.639707 20.0863088 140.639707 11.5187622 137.901675 11.5187622"></polyline>
                <path d="M146.455049,14.5238564 C146.455049,13.4642422 146.659988,12.4986025 147.066235,11.6265195 C147.472078,10.7577779 148.002176,10.1049687 148.656528,9.67059788 C149.314108,9.23622707 150.049144,9.017371 150.871724,9.017371 C152.247396,9.017371 153.327359,9.57662342 154.113227,10.6955459 C154.901516,11.8140508 155.294046,13.1205045 155.294046,14.6144895 C155.294046,15.729653 155.089511,16.7370592 154.680037,17.6333667 C154.270562,18.5296741 153.733606,19.2071255 153.065941,19.6586206 C152.401504,20.1101156 151.673325,20.336072 150.881406,20.336072 C149.609817,20.336072 148.552445,19.8323689 147.713325,18.8283041 C146.874609,17.8208979 146.455049,16.3858036 146.455049,14.5238564 L146.455049,14.5238564 Z M148.770697,14.6767215 C148.770697,15.7714195 148.978863,16.597977 149.391565,17.1605707 C149.807494,17.7202408 150.307738,18.0017465 150.894719,18.0017465 C151.46879,18.0017465 151.958545,17.7202408 152.368423,17.1538881 C152.773863,16.5912944 152.978802,15.7572189 152.978802,14.6558383 C152.978802,13.5824412 152.771039,12.7625663 152.357934,12.1999725 C151.942005,11.6336198 151.444988,11.3521141 150.864462,11.3521141 C150.290795,11.3521141 149.800636,11.6336198 149.388337,12.1999725 C148.975232,12.7625663 148.770697,13.5895415 148.770697,14.6767215 L148.770697,14.6767215 Z" id="Fill-12" fill="#D9222A"></path>
                <polyline id="Fill-13" fill="#D9222A" points="156.985599 20.0863088 156.985599 9.26755188 159.260501 9.26755188 159.260501 13.2073787 162.502408 13.2073787 162.502408 9.26755188 164.777311 9.26755188 164.777311 20.0863088 162.502408 20.0863088 162.502408 15.5212386 159.260501 15.5212386 159.260501 20.0863088 156.985599 20.0863088"></polyline>
                <path d="M1.84606357,32.0214822 L1.84606357,31.306441 C2.15064792,31.3030997 2.35881418,31.2872284 2.46693154,31.2613332 C2.5750489,31.2329321 2.67872861,31.1506522 2.77676039,31.0161643 C2.87317848,30.8808411 2.92199267,30.7091811 2.92199267,30.499096 C2.92199267,30.2468268 2.85784841,30.045095 2.7295599,29.8980772 C2.59885086,29.7506417 2.43143032,29.6775504 2.22689487,29.6775504 C1.81701711,29.6775504 1.53300733,29.9824453 1.36881418,30.5918175 L0.678557457,30.448141 C0.898422983,29.4302932 1.41964548,28.9207428 2.24020782,28.9207428 C2.69365526,28.9207428 3.0506846,29.0782023 3.31129584,29.3956271 C3.57352078,29.7109636 3.70382641,30.091038 3.70382641,30.5337621 C3.70382641,30.9614503 3.53277506,31.3152119 3.19107579,31.5954646 C3.62798289,31.8932592 3.84623472,32.3506016 3.84623472,32.9674917 C3.84623472,33.4578295 3.7054401,33.8558635 3.42627139,34.1603408 C3.14710269,34.4652357 2.75658924,34.6176831 2.25392421,34.6176831 C1.27562347,34.6176831 0.707200489,34.0626073 0.546638142,32.9532911 L1.22640587,32.7678482 C1.28933985,33.1145095 1.41601467,33.3859913 1.60562347,33.5806228 C1.79684597,33.7748367 2.01348411,33.8717348 2.25715159,33.8717348 C2.50767726,33.8717348 2.71261614,33.781937 2.87317848,33.605265 C3.03374083,33.4281753 3.11523227,33.2038896 3.11523227,32.9290666 C3.11523227,32.7085399 3.06440098,32.5222616 2.96273839,32.3702318 C2.86107579,32.2161137 2.75295844,32.1192156 2.64121027,32.0774492 C2.52784841,32.0369357 2.34187042,32.0160525 2.08287286,32.0160525 L1.84606357,32.0214822" id="Fill-14" fill="#1A1918"></path>
                <path d="M9.11776284,33.8207797 C8.87207824,34.0851612 8.61832518,34.283134 8.35448655,34.4159513 C8.08863081,34.5512745 7.8147066,34.6176831 7.5302934,34.6176831 C7.08007335,34.6176831 6.72183374,34.4777656 6.4543643,34.1954246 C6.18487775,33.9151718 6.05174817,33.536768 6.05174817,33.0602131 C6.05174817,32.7448766 6.11387531,32.4662946 6.24095355,32.2227963 C6.36601467,31.9792981 6.53867971,31.7884255 6.75693154,31.6518493 C6.97518337,31.5152731 7.30679707,31.4137807 7.75015892,31.3486251 C8.34601467,31.2613332 8.78413203,31.1560819 9.06168704,31.0337062 L9.06693154,30.7968906 C9.06693154,30.4222458 9.00238386,30.1591173 8.87409535,30.0070875 C8.69295844,29.7878138 8.41378973,29.6775504 8.03820293,29.6775504 C7.69771394,29.6775504 7.44396088,29.7506417 7.27492665,29.8964065 C7.10750611,30.0421713 6.98365526,30.3169944 6.90418093,30.7179521 L6.17317848,30.5813759 C6.27645477,30.0016579 6.48300733,29.58107 6.79606357,29.3162709 C7.1091198,29.0523071 7.55732274,28.9207428 8.1394621,28.9207428 C8.59290954,28.9207428 8.94832518,29.0080347 9.20732274,29.1851243 C9.46430318,29.3605433 9.62849633,29.5789817 9.69627139,29.8383512 C9.76404645,30.0993913 9.79793399,30.4782128 9.79793399,30.9773216 L9.79793399,32.2090134 C9.79793399,33.0710724 9.81326406,33.6140359 9.84513447,33.8383216 C9.87579462,34.060519 9.93832518,34.2793751 10.0311125,34.4915485 L9.2698533,34.4915485 C9.19199267,34.3040173 9.14116137,34.0801492 9.11776284,33.8207797 L9.11776284,33.8207797 Z M9.06168704,31.7587714 C8.7942176,31.8953476 8.39523227,32.0110406 7.8655379,32.1054327 C7.55732274,32.159729 7.34270171,32.2227963 7.22086797,32.2929639 C7.09701711,32.3631315 7.00221271,32.4629533 6.93484108,32.5907585 C6.86706601,32.7185638 6.83317848,32.8672523 6.83317848,33.0359886 C6.83317848,33.2953581 6.91103912,33.5033549 7.06676039,33.6595613 C7.22248166,33.8153501 7.43750611,33.8922003 7.71143032,33.8922003 C7.97365526,33.8922003 8.21046455,33.8220327 8.42387531,33.6821152 C8.63688264,33.5421977 8.79784841,33.3546664 8.90273839,33.1199391 C9.00924205,32.8868825 9.06168704,32.5452331 9.06168704,32.0970794 L9.06168704,31.7587714 L9.06168704,31.7587714 Z" id="Fill-15" fill="#1A1918"></path>
                <path d="M12.5565403,29.0364358 L14.2521271,29.0364358 C14.6377995,29.0364358 14.9322983,29.0727726 15.1368337,29.1483698 C15.3417726,29.2235494 15.5245232,29.3797558 15.6850856,29.6123948 C15.8460513,29.8475398 15.9271394,30.1361458 15.9271394,30.4815541 C15.9271394,31.0002931 15.7528606,31.3891385 15.4063203,31.644749 C15.8815526,31.8636051 16.1199756,32.3038232 16.1199756,32.962062 C16.1199756,33.3843206 15.9985452,33.7451825 15.7564914,34.0429771 C15.5144377,34.34286 15.0997188,34.4915485 14.5159658,34.4915485 L12.5565403,34.4915485 L12.5565403,29.0364358 L12.5565403,29.0364358 Z M13.2875428,31.3277419 L14.0742176,31.3277419 C14.3876773,31.3277419 14.6022983,31.306441 14.7209046,31.2663452 C14.8374939,31.2262495 14.944401,31.1422989 15.0371883,31.017835 C15.130379,30.8933711 15.1759658,30.7409236 15.1759658,30.5604926 C15.1759658,30.2748103 15.0932641,30.0768375 14.9286675,29.9665741 C14.7648778,29.8575637 14.4889364,29.8032674 14.0996333,29.8032674 L13.2875428,29.8032674 L13.2875428,31.3277419 L13.2875428,31.3277419 Z M13.2875428,33.7347409 L14.2638264,33.7347409 C14.6801589,33.7347409 14.9677995,33.6679146 15.1287653,33.5350974 C15.2893276,33.4039508 15.368802,33.1967894 15.368802,32.9165366 C15.368802,32.6208304 15.2840831,32.4086569 15.1166626,32.2787633 C14.9476284,32.1492874 14.6377995,32.0845495 14.1879829,32.0845495 L13.2875428,32.0845495 L13.2875428,33.7347409 L13.2875428,33.7347409 Z" id="Fill-16" fill="#1A1918"></path>
                <path d="M18.325489,31.769213 C18.325489,30.8282154 18.5167115,30.1190215 18.8975428,29.6387077 C19.2783741,29.1604821 19.7620782,28.9207428 20.3462347,28.9207428 C20.9211125,28.9207428 21.3999756,29.1604821 21.787665,29.6387077 C22.1733374,30.1190215 22.3661736,30.8094205 22.3661736,31.713246 C22.3661736,32.6905803 22.1769682,33.4194044 21.7961369,33.8993006 C21.4169193,34.3779438 20.9332152,34.6176831 20.3462347,34.6176831 C19.7689364,34.6176831 19.286846,34.3779438 18.9023839,33.8959593 C18.5183252,33.4160631 18.325489,32.7064515 18.325489,31.769213 L18.325489,31.769213 Z M19.077066,31.7658717 C19.077066,32.4733949 19.2005134,32.9988165 19.4474083,33.3442248 C19.6943032,33.6892155 20.0009046,33.8608755 20.3664059,33.8608755 C20.7081051,33.8608755 21.0022005,33.6871272 21.2478851,33.3387952 C21.4931663,32.9900455 21.615,32.4662946 21.615,31.7658717 C21.615,31.0629427 21.4915526,30.5391918 21.2446577,30.1942011 C20.9973594,29.8492104 20.6911614,29.6775504 20.3256601,29.6775504 C19.9803301,29.6775504 19.6858313,29.8508811 19.4421638,30.1979601 C19.1988998,30.5429508 19.077066,31.0667017 19.077066,31.7658717 L19.077066,31.7658717 Z" id="Fill-17" fill="#1A1918"></path>
                <path d="M25.4398533,29.0364358 L28.4348655,29.0364358 L28.4348655,33.7347409 L28.9020293,33.7347409 L28.9020293,36.0364885 L28.3029462,36.0364885 L28.3029462,34.4915485 L24.9218582,34.4915485 L24.9218582,36.0364885 L24.3130929,36.0364885 L24.3130929,33.7347409 L24.6987653,33.7347409 C25.203044,32.8639109 25.4499389,31.29767 25.4398533,29.0364358 L25.4398533,29.0364358 Z M26.049022,29.8032674 C25.996577,31.5779227 25.7799389,32.8885531 25.399511,33.7347409 L27.7038631,33.7347409 L27.7038631,29.8032674 L26.049022,29.8032674 L26.049022,29.8032674 Z" id="Fill-18" fill="#1A1918"></path>
                <path d="M36.2697433,29.0364358 L36.2697433,31.3908092 C36.5033252,31.3908092 36.6659046,31.3344245 36.760709,31.2224905 C36.8571271,31.1101388 36.994291,30.7810194 37.1717971,30.2363852 C37.3158191,29.8015967 37.4324083,29.516332 37.5239853,29.3780852 C37.6151589,29.2394206 37.7168215,29.1466992 37.8301834,29.1028444 C37.9415281,29.0589897 38.1396088,29.0364358 38.4256357,29.0364358 L38.5341565,29.0364358 L38.5341565,29.8032674 L38.3159046,29.7986731 C38.1702689,29.7986731 38.0637653,29.8228976 37.9959902,29.873435 C37.9282152,29.92439 37.8672983,30.036324 37.8148533,30.2100723 C37.6506601,30.7618068 37.5187408,31.1155684 37.4239364,31.2734455 C37.3275183,31.4313226 37.1750244,31.5695695 36.9668582,31.6902744 C37.2851589,31.7971965 37.5933741,32.1668293 37.8943276,32.8008436 L38.6963325,34.4915485 L37.8826284,34.4915485 L37.0955501,32.8100323 C36.9366015,32.459612 36.7994377,32.2336556 36.6812347,32.1267336 C36.5626284,32.0214822 36.425868,31.9688565 36.2697433,31.9688565 L36.2697433,34.4915485 L35.5185697,34.4915485 L35.5185697,31.9688565 C35.3612347,31.9688565 35.2224572,32.0193938 35.1074817,32.1213039 C34.990489,32.224467 34.8521149,32.4541823 34.6911491,32.8100323 L33.9044743,34.4915485 L33.0919804,34.4915485 L33.8923716,32.8008436 C34.1953423,32.163488 34.5051711,31.7938552 34.8182274,31.6902744 C34.6169193,31.5729108 34.4692665,31.4430172 34.3748655,31.2997584 C34.2800611,31.1544112 34.1465281,30.7918786 33.9722494,30.211743 C33.9230318,30.040083 33.8637286,29.9277313 33.7959535,29.8771939 C33.7281785,29.8245683 33.6200611,29.7986731 33.4728117,29.7986731 L33.2545599,29.8032674 L33.2545599,29.0364358 L33.3630807,29.0364358 C33.657176,29.0364358 33.8653423,29.0644193 33.987176,29.1187157 C34.1090098,29.173012 34.2122861,29.2745044 34.2953912,29.4231929 C34.3797066,29.5722991 34.5100122,29.9172897 34.6863081,30.4590002 C34.8230685,30.8720702 34.9384474,31.1314397 35.029621,31.2346027 C35.1228117,31.3381835 35.2870049,31.3908092 35.5185697,31.3908092 L35.5185697,29.0364358 L36.2697433,29.0364358" id="Fill-19" fill="#1A1918"></path>
                <path d="M43.7834963,32.7465473 L44.5346699,32.862658 C44.4096088,33.4419583 44.1812714,33.8800881 43.8528851,34.1745413 C43.5228851,34.4702476 43.1150244,34.6176831 42.6293032,34.6176831 C42.0169071,34.6176831 41.5227139,34.3779438 41.1438998,33.8959593 C40.7646822,33.4160631 40.5750733,32.7223228 40.5750733,31.8147384 C40.5750733,30.8737408 40.7662958,30.1574467 41.1487408,29.6616792 C41.5311858,29.1675824 42.0136797,28.9207428 42.6006601,28.9207428 C43.1589976,28.9207428 43.6261614,29.1621528 44.0001345,29.6474786 C44.3720905,30.1332221 44.5600856,30.8353157 44.5600856,31.7550124 L44.5548411,32.0001813 L41.3266504,32.0001813 C41.3569071,32.6154007 41.4940709,33.0794257 41.7393521,33.3910032 C41.9846333,33.7046691 42.2827628,33.8608755 42.6345477,33.8608755 C43.1844132,33.8608755 43.5688753,33.489572 43.7834963,32.7465473 L43.7834963,32.7465473 Z M41.3706235,31.2437914 L43.7834963,31.2437914 C43.7496088,30.7705778 43.6531907,30.4184868 43.4906112,30.1854302 C43.2554156,29.8475398 42.9560758,29.6775504 42.5921883,29.6775504 C42.263802,29.6775504 41.9846333,29.8195563 41.7530685,30.101062 C41.5211002,30.383403 41.394022,30.7634775 41.3706235,31.2437914 L41.3706235,31.2437914 Z" id="Fill-20" fill="#1A1918"></path>
                <path d="M47.4457702,29.0364358 L50.8571149,29.0364358 L50.8571149,34.4915485 L50.1261125,34.4915485 L50.1261125,29.8032674 L48.1767726,29.8032674 L48.1767726,32.516832 C48.1767726,33.1358104 48.1614425,33.5526393 48.1295721,33.7643951 C48.098912,33.9765685 48.0077384,34.1549111 47.8568582,34.3023466 C47.7063814,34.4493644 47.491357,34.5228733 47.213802,34.5228733 C47.0411369,34.5228733 46.8483007,34.5128494 46.6336797,34.4915485 L46.6336797,33.7138577 C46.9790098,33.7100987 47.1835452,33.6979864 47.2460758,33.6787739 C47.3086064,33.6578907 47.357824,33.605265 47.3933252,33.5208968 C47.4288264,33.4369463 47.4457702,33.14124 47.4457702,32.631272 L47.4457702,29.0364358" id="Fill-21" fill="#1A1918"></path>
                <path d="M56.5094743,32.7465473 L57.2606479,32.862658 C57.1351834,33.4419583 56.9072494,33.8800881 56.5788631,34.1745413 C56.2488631,34.4702476 55.8410024,34.6176831 55.3552812,34.6176831 C54.7428851,34.6176831 54.2486919,34.3779438 53.8698778,33.8959593 C53.4906601,33.4160631 53.3010513,32.7223228 53.3010513,31.8147384 C53.3010513,30.8737408 53.4922738,30.1574467 53.8747188,29.6616792 C54.2571638,29.1675824 54.7396577,28.9207428 55.3266381,28.9207428 C55.8849756,28.9207428 56.3521394,29.1621528 56.7261125,29.6474786 C57.0980685,30.1332221 57.2860636,30.8353157 57.2860636,31.7550124 L57.2808191,32.0001813 L54.0522249,32.0001813 C54.0828851,32.6154007 54.2200489,33.0794257 54.4653301,33.3910032 C54.7106112,33.7046691 55.0087408,33.8608755 55.3605257,33.8608755 C55.9103912,33.8608755 56.2944499,33.489572 56.5094743,32.7465473 L56.5094743,32.7465473 Z M54.096198,31.2437914 L56.5094743,31.2437914 C56.4755868,30.7705778 56.3791687,30.4184868 56.2165892,30.1854302 C55.9813936,29.8475398 55.6816504,29.6775504 55.3181663,29.6775504 C54.98978,29.6775504 54.7106112,29.8195563 54.4790465,30.101062 C54.2470782,30.383403 54.12,30.7634775 54.096198,31.2437914 L54.096198,31.2437914 Z" id="Fill-22" fill="#1A1918"></path>
                <path d="M60.7809169,32.0214822 L60.7809169,31.306441 C61.0855012,31.3030997 61.2936675,31.2872284 61.4017848,31.2613332 C61.5103056,31.2329321 61.6135819,31.1506522 61.7116137,31.0161643 C61.8080318,30.8808411 61.8572494,30.7091811 61.8572494,30.499096 C61.8572494,30.2468268 61.7927017,30.045095 61.6644132,29.8980772 C61.5337042,29.7506417 61.3662836,29.6775504 61.1613447,29.6775504 C60.7522738,29.6775504 60.4678606,29.9824453 60.3036675,30.5918175 L59.6134108,30.448141 C59.8332763,29.4302932 60.3544988,28.9207428 61.1750611,28.9207428 C61.6285086,28.9207428 61.9855379,29.0782023 62.2461491,29.3956271 C62.5083741,29.7109636 62.6390831,30.091038 62.6390831,30.5337621 C62.6390831,30.9614503 62.4680318,31.3152119 62.1263325,31.5954646 C62.5628362,31.8932592 62.781088,32.3506016 62.781088,32.9674917 C62.781088,33.4578295 62.6406968,33.8558635 62.3615281,34.1603408 C62.081956,34.4652357 61.6910391,34.6176831 61.1887775,34.6176831 C60.2104768,34.6176831 59.6420538,34.0626073 59.481088,32.9532911 L60.1616626,32.7678482 C60.2241932,33.1145095 60.3512714,33.3859913 60.5404768,33.5806228 C60.7316993,33.7748367 60.9483374,33.8717348 61.1920049,33.8717348 C61.4425306,33.8717348 61.647066,33.781937 61.8080318,33.605265 C61.9685941,33.4281753 62.0500856,33.2038896 62.0500856,32.9290666 C62.0500856,32.7085399 61.9992543,32.5222616 61.8975917,32.3702318 C61.7963325,32.2161137 61.6878117,32.1192156 61.5760636,32.0774492 C61.4631051,32.0369357 61.2767237,32.0160525 61.0177262,32.0160525 L60.7809169,32.0214822" id="Fill-23" fill="#1A1918"></path>
                <path d="M64.9660269,31.769213 C64.9660269,30.8282154 65.1572494,30.1190215 65.5380807,29.6387077 C65.9185086,29.1604821 66.4026161,28.9207428 66.9863692,28.9207428 C67.5616504,28.9207428 68.0405134,29.1604821 68.4282029,29.6387077 C68.8138753,30.1190215 69.0071149,30.8094205 69.0071149,31.713246 C69.0071149,32.6905803 68.8171027,33.4194044 68.4366748,33.8993006 C68.0574572,34.3779438 67.5737531,34.6176831 66.9863692,34.6176831 C66.4094743,34.6176831 65.9269804,34.3779438 65.5429218,33.8959593 C65.1588631,33.4160631 64.9660269,32.7064515 64.9660269,31.769213 L64.9660269,31.769213 Z M65.7172005,31.7658717 C65.7172005,32.4733949 65.8410513,32.9988165 66.0879462,33.3442248 C66.3348411,33.6892155 66.6410391,33.8608755 67.0069438,33.8608755 C67.348643,33.8608755 67.6431418,33.6871272 67.888423,33.3387952 C68.1337042,32.9900455 68.2555379,32.4662946 68.2555379,31.7658717 C68.2555379,31.0629427 68.1320905,30.5391918 67.8847922,30.1942011 C67.6378973,29.8492104 67.3316993,29.6775504 66.966198,29.6775504 C66.620868,29.6775504 66.3263692,29.8508811 66.0827017,30.1979601 C65.8394377,30.5429508 65.7172005,31.0667017 65.7172005,31.7658717 L65.7172005,31.7658717 Z" id="Fill-24" fill="#1A1918"></path>
                <path d="M74.6691565,26.7868962 L75.3190709,26.7868962 C75.2884108,27.1636294 75.2226528,27.4225812 75.1209902,27.564587 C75.0177139,27.7065929 74.8894254,27.795973 74.7337042,27.8348158 C74.5779829,27.8711526 74.2750122,27.8903651 73.8251956,27.8903651 C73.2325672,27.8903651 72.8247066,27.9622034 72.6012103,28.1042092 C72.3781174,28.2462151 72.2155379,28.482613 72.1175061,28.8117325 C72.0178606,29.1429402 71.9617848,29.5635281 71.9484719,30.0734961 C72.3155868,29.3814265 72.8093765,29.0364358 73.4290342,29.0364358 C74.0075428,29.0364358 74.4815648,29.2849461 74.8486797,29.7807135 C75.2157946,30.2781516 75.4001589,30.9405671 75.4001589,31.7708836 C75.4001589,32.5611044 75.229511,33.2335438 74.8894254,33.7869489 C74.5493399,34.3407717 74.0551467,34.6176831 73.406846,34.6176831 C72.9247555,34.6176831 72.5390831,34.4811069 72.2494254,34.2096251 C71.9601711,33.9381434 71.7334474,33.5609926 71.5728851,33.0810964 C71.4103056,32.6028708 71.3292176,31.8009555 71.3292176,30.6740973 C71.3292176,29.2009955 71.5220538,28.2148903 71.9061125,27.7149462 C72.2917848,27.2158374 72.8876406,26.9652388 73.6928729,26.9652388 C74.1919071,26.9652388 74.4747066,26.9531266 74.5420782,26.9289021 C74.6098533,26.9042599 74.6522127,26.8570638 74.6691565,26.7868962 L74.6691565,26.7868962 Z M74.6388998,31.7391411 C74.6388998,31.1280984 74.5251345,30.6515435 74.2988142,30.3078058 C74.0720905,29.9649034 73.7775917,29.7928258 73.4169315,29.7928258 C73.011088,29.7928258 72.6980318,29.980357 72.47978,30.3537488 C72.2615281,30.7283937 72.1513936,31.246715 72.1513936,31.9091305 C72.1513936,32.5644457 72.2748411,33.0568718 72.5237531,33.3826499 C72.7722616,33.708428 73.0736186,33.8717348 73.4274205,33.8717348 C73.7707335,33.8717348 74.0599878,33.6787739 74.291956,33.2953581 C74.5239242,32.9094364 74.6388998,32.391115 74.6388998,31.7391411 L74.6388998,31.7391411 Z" id="Fill-25" fill="#1A1918"></path>
                <path d="M80.8358802,32.7465473 L81.5870538,32.862658 C81.4619927,33.4419583 81.2336553,33.8800881 80.9052689,34.1745413 C80.5752689,34.4702476 80.1674083,34.6176831 79.681687,34.6176831 C79.069291,34.6176831 78.5750978,34.3779438 78.1962836,33.8959593 C77.817066,33.4160631 77.6274572,32.7223228 77.6274572,31.8147384 C77.6274572,30.8737408 77.8190831,30.1574467 78.2011247,29.6616792 C78.5835697,29.1675824 79.0660636,28.9207428 79.653044,28.9207428 C80.2113814,28.9207428 80.6785452,29.1621528 81.0525183,29.6474786 C81.4248778,30.1332221 81.6124694,30.8353157 81.6124694,31.7550124 L81.6076284,32.0001813 L78.3790342,32.0001813 C78.409291,32.6154007 78.5464548,33.0794257 78.7917359,33.3910032 C79.0374205,33.7046691 79.3351467,33.8608755 79.6869315,33.8608755 C80.2367971,33.8608755 80.6208557,33.489572 80.8358802,32.7465473 L80.8358802,32.7465473 Z M78.4230073,31.2437914 L80.8358802,31.2437914 C80.8019927,30.7705778 80.7055746,30.4184868 80.5429951,30.1854302 C80.3077995,29.8475398 80.0084597,29.6775504 79.6445721,29.6775504 C79.3161858,29.6775504 79.0374205,29.8195563 78.8054523,30.101062 C78.5734841,30.383403 78.4468093,30.7634775 78.4230073,31.2437914 L78.4230073,31.2437914 Z" id="Fill-26" fill="#1A1918"></path>
                <polyline id="Fill-27" fill="#1A1918" points="83.7469804 29.0364358 87.2599878 29.0364358 87.2599878 29.8032674 85.8689853 29.8032674 85.8689853 34.4915485 85.1379829 34.4915485 85.1379829 29.8032674 83.7469804 29.8032674 83.7469804 29.0364358"></polyline>
                <path d="M89.2924328,31.769213 C89.2924328,30.8282154 89.4836553,30.1190215 89.8644866,29.6387077 C90.2453178,29.1604821 90.729022,28.9207428 91.3131785,28.9207428 C91.8884597,28.9207428 92.3673227,29.1604821 92.7546088,29.6387077 C93.1406846,30.1190215 93.3331174,30.8094205 93.3331174,31.713246 C93.3331174,32.6905803 93.143912,33.4194044 92.7630807,33.8993006 C92.3838631,34.3779438 91.9001589,34.6176831 91.3131785,34.6176831 C90.7358802,34.6176831 90.2537897,34.3779438 89.8697311,33.8959593 C89.4852689,33.4160631 89.2924328,32.7064515 89.2924328,31.769213 L89.2924328,31.769213 Z M90.0436064,31.7658717 C90.0436064,32.4733949 90.1674572,32.9988165 90.4143521,33.3442248 C90.6616504,33.6892155 90.967445,33.8608755 91.3333496,33.8608755 C91.6750489,33.8608755 91.9695477,33.6871272 92.2148289,33.3387952 C92.4605134,32.9900455 92.5819438,32.4662946 92.5819438,31.7658717 C92.5819438,31.0629427 92.4584963,30.5391918 92.211198,30.1942011 C91.9643032,29.8492104 91.6581051,29.6775504 91.2926039,29.6775504 C90.9476773,29.6775504 90.6531785,29.8508811 90.4091076,30.1979601 C90.1658435,30.5429508 90.0436064,31.0667017 90.0436064,31.7658717 L90.0436064,31.7658717 Z" id="Fill-28" fill="#1A1918"></path>
                <polyline id="Fill-29" fill="#1A1918" points="95.8182029 29.0364358 96.548802 29.0364358 96.548802 31.306441 98.5897188 31.306441 98.5897188 29.0364358 99.3203178 29.0364358 99.3203178 34.4915485 98.5897188 34.4915485 98.5897188 32.0741079 96.548802 32.0741079 96.548802 34.4915485 95.8182029 34.4915485 95.8182029 29.0364358"></polyline>
                <polyline id="Fill-30" fill="#1A1918" points="102.035355 29.0364358 102.766357 29.0364358 102.766357 31.306441 104.807274 31.306441 104.807274 29.0364358 105.537873 29.0364358 105.537873 34.4915485 104.807274 34.4915485 104.807274 32.0741079 102.766357 32.0741079 102.766357 34.4915485 102.035355 34.4915485 102.035355 29.0364358"></polyline>
                <path d="M108.25291,29.0364358 L108.983509,29.0364358 L108.983509,31.1702824 L109.914609,31.1702824 C110.581064,31.1702824 111.061944,31.3327538 111.356039,31.6568613 C111.648924,31.9830571 111.796174,32.3773321 111.796174,32.8380158 C111.796174,33.2757279 111.662237,33.661232 111.396785,33.9941104 C111.131333,34.3253181 110.693215,34.4915485 110.082029,34.4915485 L108.25291,34.4915485 L108.25291,29.0364358 L108.25291,29.0364358 Z M108.983509,33.7347409 L109.752029,33.7347409 C110.310367,33.7347409 110.665782,33.6420194 110.816259,33.4561588 C110.968753,33.2702983 111.045,33.0656428 111.045,32.8413571 C111.045,32.5489921 110.95665,32.3230358 110.782372,32.1651587 C110.606479,32.0056109 110.29665,31.9266724 109.850061,31.9266724 L108.983509,31.9266724 L108.983509,33.7347409 L108.983509,33.7347409 Z M112.527176,34.4915485 L113.258582,34.4915485 L113.258582,29.0364358 L112.527176,29.0364358 L112.527176,34.4915485 Z" id="Fill-31" fill="#1A1918"></path>
                <path d="M115.588753,34.4915485 L117.165733,31.6639616 L115.710587,29.0364358 L116.619095,29.0364358 L117.289181,30.3149061 C117.412628,30.551304 117.511064,30.7496946 117.585293,30.9146719 C117.708741,30.6916392 117.817262,30.4974253 117.911663,30.3291067 L118.632579,29.0364358 L119.507604,29.0364358 L118.028655,31.592541 L119.629438,34.4915485 L118.733032,34.4915485 L117.841064,32.799173 L117.612323,32.34016 L116.475477,34.4915485 L115.588753,34.4915485" id="Fill-32" fill="#1A1918"></path>
                <polyline id="Fill-33" fill="#1A1918" points="124.166333 29.0364358 124.897738 29.0364358 124.897738 33.1846771 126.939866 29.0364358 127.730171 29.0364358 127.730171 34.4915485 126.999169 34.4915485 126.999169 30.3428896 124.956638 34.4915485 124.166333 34.4915485 124.166333 29.0364358"></polyline>
                <path d="M131.417861,32.0214822 L131.417861,31.306441 C131.722445,31.3030997 131.930611,31.2872284 132.038729,31.2613332 C132.147249,31.2329321 132.250122,31.1506522 132.348154,31.0161643 C132.444976,30.8808411 132.494193,30.7091811 132.494193,30.499096 C132.494193,30.2468268 132.430049,30.045095 132.300954,29.8980772 C132.170648,29.7506417 132.003227,29.6775504 131.798692,29.6775504 C131.388814,29.6775504 131.104804,29.9824453 130.940611,30.5918175 L130.250355,30.448141 C130.47022,29.4302932 130.991443,28.9207428 131.812005,28.9207428 C132.265452,28.9207428 132.622482,29.0782023 132.883496,29.3956271 C133.145318,29.7109636 133.275623,30.091038 133.275623,30.5337621 C133.275623,30.9614503 133.104572,31.3152119 132.763276,31.5954646 C133.19978,31.8932592 133.418032,32.3506016 133.418032,32.9674917 C133.418032,33.4578295 133.277237,33.8558635 132.998472,34.1603408 C132.7189,34.4652357 132.328386,34.6176831 131.825721,34.6176831 C130.847824,34.6176831 130.278998,34.0626073 130.118032,32.9532911 L130.798606,32.7678482 C130.861137,33.1145095 130.987812,33.3859913 131.177421,33.5806228 C131.368643,33.7748367 131.585281,33.8717348 131.828949,33.8717348 C132.079474,33.8717348 132.28401,33.781937 132.444976,33.605265 C132.605538,33.4281753 132.686626,33.2038896 132.686626,32.9290666 C132.686626,32.7085399 132.636198,32.5222616 132.534535,32.3702318 C132.432873,32.2161137 132.324756,32.1192156 132.213007,32.0774492 C132.099645,32.0369357 131.913667,32.0160525 131.65467,32.0160525 L131.417861,32.0214822" id="Fill-34" fill="#1A1918"></path>
                <path d="M136.466296,29.0364358 L139.460905,29.0364358 L139.460905,33.7347409 L139.928068,33.7347409 L139.928068,36.0364885 L139.328985,36.0364885 L139.328985,34.4915485 L135.947897,34.4915485 L135.947897,36.0364885 L135.339132,36.0364885 L135.339132,33.7347409 L135.725208,33.7347409 C136.229083,32.8639109 136.476381,31.29767 136.466296,29.0364358 L136.466296,29.0364358 Z M137.075061,29.8032674 C137.022616,31.5779227 136.805978,32.8885531 136.42555,33.7347409 L138.730306,33.7347409 L138.730306,29.8032674 L137.075061,29.8032674 L137.075061,29.8032674 Z" id="Fill-35" fill="#1A1918"></path>
                <path d="M145.306504,32.7465473 L146.057677,32.862658 C145.932213,33.4419583 145.703875,33.8800881 145.375489,34.1745413 C145.045489,34.4702476 144.637628,34.6176831 144.151907,34.6176831 C143.539914,34.6176831 143.045318,34.3779438 142.666504,33.8959593 C142.287286,33.4160631 142.097677,32.7223228 142.097677,31.8147384 C142.097677,30.8737408 142.289303,30.1574467 142.671345,29.6616792 C143.054193,29.1675824 143.536284,28.9207428 144.123264,28.9207428 C144.682005,28.9207428 145.148765,29.1621528 145.522738,29.6474786 C145.895098,30.1332221 146.082689,30.8353157 146.082689,31.7550124 L146.077848,32.0001813 L142.849254,32.0001813 C142.879914,32.6154007 143.016675,33.0794257 143.261956,33.3910032 C143.507641,33.7046691 143.805367,33.8608755 144.157152,33.8608755 C144.707017,33.8608755 145.091076,33.489572 145.306504,32.7465473 L145.306504,32.7465473 Z M142.893227,31.2437914 L145.306504,31.2437914 C145.272616,30.7705778 145.175795,30.4184868 145.013619,30.1854302 C144.778423,29.8475398 144.47868,29.6775504 144.114792,29.6775504 C143.786809,29.6775504 143.507641,29.8195563 143.275672,30.101062 C143.043704,30.383403 142.917029,30.7634775 142.893227,31.2437914 L142.893227,31.2437914 Z" id="Fill-36" fill="#1A1918"></path>
                <path d="M148.968778,29.0364358 L152.379719,29.0364358 L152.379719,34.4915485 L151.648716,34.4915485 L151.648716,29.8032674 L149.699377,29.8032674 L149.699377,32.516832 C149.699377,33.1358104 149.68445,33.5526393 149.652176,33.7643951 C149.621919,33.9765685 149.530342,34.1549111 149.379462,34.3023466 C149.228985,34.4493644 149.014364,34.5228733 148.736406,34.5228733 C148.564144,34.5228733 148.370905,34.5128494 148.156284,34.4915485 L148.156284,33.7138577 C148.50121,33.7100987 148.706149,33.6979864 148.769083,33.6787739 C148.831614,33.6578907 148.880428,33.605265 148.916333,33.5208968 C148.951834,33.4369463 148.968778,33.14124 148.968778,32.631272 L148.968778,29.0364358" id="Fill-37" fill="#1A1918"></path>
                <polyline id="Fill-38" fill="#1A1918" points="155.077408 29.0364358 155.808814 29.0364358 155.808814 33.1846771 157.850941 29.0364358 158.641247 29.0364358 158.641247 34.4915485 157.910244 34.4915485 157.910244 30.3428896 155.867714 34.4915485 155.077408 34.4915485 155.077408 29.0364358"></polyline>
                <path d="M161.354267,29.0364358 L162.085269,29.0364358 L162.085269,33.1846771 L164.1278,29.0364358 L164.918105,29.0364358 L164.918105,34.4915485 L164.186699,34.4915485 L164.186699,30.3428896 L162.144572,34.4915485 L161.354267,34.4915485 L161.354267,29.0364358 L161.354267,29.0364358 Z M163.831284,26.9760981 L164.329108,26.9760981 C164.286748,27.4192399 164.156443,27.7521183 163.941418,27.9759863 C163.726797,28.199019 163.454487,28.310953 163.124487,28.310953 C162.792469,28.310953 162.520562,28.199019 162.306748,27.9759863 C162.093741,27.7521183 161.965049,27.4192399 161.922689,26.9760981 L162.420513,26.9760981 C162.496357,27.4384524 162.724694,27.6698384 163.104315,27.6698384 C163.315306,27.6698384 163.481112,27.6155421 163.596491,27.504861 C163.713081,27.396686 163.790941,27.2195964 163.831284,26.9760981 L163.831284,26.9760981 Z" id="Fill-39" fill="#1A1918"></path>
                <path d="M6.6193643,0.0317424825 L26.1280929,0.0317424825 C29.5858313,0.0317424825 32.4146333,2.96040415 32.4146333,6.54020438 L32.4146333,18.720129 C32.4146333,22.2999293 29.5858313,25.2285909 26.1280929,25.2285909 L6.6193643,25.2285909 C3.16162592,25.2285909 0.332823961,22.2999293 0.332823961,18.720129 L0.332823961,6.54020438 C0.332823961,2.96040415 3.16162592,0.0317424825 6.6193643,0.0317424825" id="Fill-40" fill="#D9222A"></path>
                <path d="M11.0219193,4.88500098 C12.021198,4.87163573 12.9522983,5.49813209 12.9522983,6.52976277 L12.9522983,11.8382753 C12.9522983,12.8761709 12.1333496,13.720688 11.1372983,13.720688 L6.02270171,13.720688 C5.02665037,13.720688 4.19801956,12.8732473 4.20689487,11.8382753 C4.24239609,6.88853636 6.23409535,4.95683923 11.0219193,4.88500098 L11.0219193,4.88500098 Z M9.25129584,6.73483592 C7.48954768,6.76114876 6.75693154,7.4720133 6.74361858,9.29344707 C6.7403912,9.67393919 7.04537897,9.98593438 7.41209046,9.98593438 L9.29405868,9.98593438 C9.66036675,9.98593438 9.96172372,9.67519219 9.96172372,9.29344707 L9.96172372,7.3400314 C9.96172372,6.96037461 9.61881418,6.72982395 9.25129584,6.73483592 L9.25129584,6.73483592 Z" id="Fill-41" fill="#FFFFFF"></path>
                <path d="M5.26709046,14.3484374 L12.3846822,14.3484374 C12.8841198,14.3484374 13.2931907,14.7715313 13.2931907,15.2890173 L13.2931907,18.0806851 C13.2931907,18.6424435 12.919621,19.0584371 12.4823105,19.0730553 C12.045,19.0876736 11.5895355,18.9343908 11.5895355,18.386833 C11.5895355,16.6343138 10.2162836,15.2125847 8.52311736,15.2125847 C6.8299511,15.2125847 5.45629584,16.6343138 5.45629584,18.386833 C5.45629584,18.8763355 5.24611247,19.0521721 4.84591687,19.0525898 C4.44531785,19.0525898 4.35858191,18.5204855 4.35858191,18.0806851 L4.35858191,15.2890173 C4.35858191,14.7715313 4.76724939,14.3484374 5.26709046,14.3484374" id="Fill-42" fill="#FFFFFF"></path>
                <path d="M15.6011736,14.2177085 L27.5134474,14.2177085 C27.9322005,14.2177085 28.2747066,14.5718878 28.2747066,15.0054233 L28.2747066,18.3028825 C28.2747066,18.7360003 28.2162103,19.0914325 27.8228729,19.0914325 C27.429132,19.0914325 27.2290342,18.9101663 27.2290342,18.386833 C27.2290342,16.6343138 25.855379,15.2125847 24.1622127,15.2125847 L18.668802,15.2125847 C16.9756357,15.2125847 15.6023839,16.6343138 15.6023839,18.386833 C15.6023839,18.9243668 15.5725306,19.0914325 15.0755134,19.0914325 C14.5780929,19.0914325 14.5421883,18.7364179 14.5421883,18.3028825 L14.5421883,15.3140771 C14.5421883,14.71097 15.0186308,14.2177085 15.6011736,14.2177085" id="Fill-43" fill="#FFFFFF"></path>
                <path d="M20.0347922,4.86202945 C20.9638753,4.6185312 27.1713447,3.99287016 27.4339731,5.0658496 L28.5337042,9.56242284 C28.7951222,10.6324786 23.0592543,13.1710419 22.130978,13.4141225 C21.2135941,13.6546971 15.0626039,14.2298208 14.8011858,13.1614356 L13.7018582,8.66528005 C13.4396333,7.59397126 19.1182152,5.10218639 20.0347922,4.86202945" id="Fill-44" fill="#FFFFFF"></path>
                <path d="M8.48479218,15.8252982 C9.80963325,15.8252982 10.8883863,16.9417147 10.8883863,18.3137417 C10.8883863,19.6853511 9.80963325,20.8017676 8.48479218,20.8017676 C7.1599511,20.8017676 6.08160147,19.6853511 6.08160147,18.3137417 C6.08160147,16.9417147 7.1599511,15.8252982 8.48479218,15.8252982 L8.48479218,15.8252982 Z M8.48479218,17.4174343 C8.00754279,17.4174343 7.61904645,17.8196449 7.61904645,18.3137417 C7.61904645,18.8074209 8.00754279,19.2096315 8.48479218,19.2096315 C8.96204156,19.2096315 9.3505379,18.8074209 9.3505379,18.3137417 C9.3505379,17.8196449 8.96204156,17.4174343 8.48479218,17.4174343 L8.48479218,17.4174343 Z" id="Fill-45" fill="#FFFFFF"></path>
                <path d="M18.6619438,15.8252982 C19.9867848,15.8252982 21.0651345,16.9417147 21.0651345,18.3137417 C21.0651345,19.6853511 19.9867848,20.8017676 18.6619438,20.8017676 C17.3366993,20.8017676 16.2583496,19.6853511 16.2583496,18.3137417 C16.2583496,16.9417147 17.3366993,15.8252982 18.6619438,15.8252982 L18.6619438,15.8252982 Z M18.6619438,17.4174343 C18.1846944,17.4174343 17.796198,17.8196449 17.796198,18.3137417 C17.796198,18.8074209 18.1846944,19.2096315 18.6619438,19.2096315 C19.1391932,19.2096315 19.5276895,18.8074209 19.5276895,18.3137417 C19.5276895,17.8196449 19.1391932,17.4174343 18.6619438,17.4174343 L18.6619438,17.4174343 Z" id="Fill-46" fill="#FFFFFF"></path>
                <path d="M23.9899511,15.8252982 C25.3151956,15.8252982 26.3931418,16.9417147 26.3931418,18.3137417 C26.3931418,19.6853511 25.3151956,20.8017676 23.9899511,20.8017676 C22.66511,20.8017676 21.5867604,19.6853511 21.5867604,18.3137417 C21.5867604,16.9417147 22.66511,15.8252982 23.9899511,15.8252982 L23.9899511,15.8252982 Z M23.9899511,17.4174343 C23.5127017,17.4174343 23.1242054,17.8196449 23.1242054,18.3137417 C23.1242054,18.8074209 23.5127017,19.2096315 23.9899511,19.2096315 C24.4672005,19.2096315 24.8556968,18.8074209 24.8556968,18.3137417 C24.8556968,17.8196449 24.4672005,17.4174343 23.9899511,17.4174343 L23.9899511,17.4174343 Z" id="Fill-47" fill="#FFFFFF"></path>
            </g>
        </g>
    </g>
</svg>
